# xmcd
#
# Track frame offsets:
#	150
#	11779
#	27737
#	43253
#	55467
#	69747
#	83926
#	96238
#	113377
#	127138
#
# Disc length: 1839 seconds
#
# Revision: 1
# Processed by: cddbd v1.5.2PL0 Copyright (c) Steve Scherf et al.
# Submitted via: EasyCDDAExtractor 6.5.0.1
#
DISCID=91072d0a
DTITLE=Conway Twitty - The Legend - Volume One
DYEAR=2003
DGENRE=Country
TTITLE0=Hello Darlin'
TTITLE1=Touch The Hand
TTITLE2=Lost Her Love On Our Last Date
TTITLE3=(Lying Here With) Linda On My Mind
TTITLE4=Play The Games That Daddies Play
TTITLE5=Baby's Gone
TTITLE6=I'm Not Through Loving You Yet
TTITLE7=Don't Cry Joni
TTITLE8=Danny Boy
TTITLE9=I Can't Believe She Gives It All To Me
EXTD=
EXTT0=
EXTT1=
EXTT2=
EXTT3=
EXTT4=
EXTT5=
EXTT6=
EXTT7=
EXTT8=
EXTT9=
PLAYORDER=
